<svg viewBox="0 0 100 100" xmlns="http://www.w3.org/2000/svg" shape-rendering="geometricPrecision">
  <polygon points="82,82 84,56 88,50 92,54 94,82" fill="#180408" stroke="#180408" stroke-width="0.5"/>
  <polygon points="72,82 76,42 84,34 90,40 92,82" fill="#200610" stroke="#200610" stroke-width="0.5"/>
  <polygon points="76,42 84,34 90,38 82,44" fill="#380C16" stroke="#380C16" stroke-width="0.5"/>
  <polygon points="58,82 64,28 80,20 94,30 96,82" fill="#2C0A12" stroke="#2C0A12" stroke-width="0.5"/>
  <polygon points="64,28 80,20 96,24 78,32" fill="#4C1018" stroke="#4C1018" stroke-width="0.5"/>
  <polygon points="94,30 96,82 100,78 100,34" fill="#1C0608" stroke="#1C0608" stroke-width="0.5"/>
  <polygon points="6,92 16,16 38,6 48,20 48,46" fill="#DC2828" stroke="#DC2828" stroke-width="0.5"/>
  <polygon points="6,92 48,46 48,68 14,78" fill="#D02424" stroke="#D02424" stroke-width="0.5"/>
  <polygon points="14,78 48,68 48,92 6,92" fill="#C42020" stroke="#C42020" stroke-width="0.5"/>
  <polygon points="48,20 64,12 76,24 76,46 48,46" fill="#B81C1C" stroke="#B81C1C" stroke-width="0.5"/>
  <polygon points="48,46 76,46 76,68 48,68" fill="#A81818" stroke="#A81818" stroke-width="0.5"/>
  <polygon points="48,68 76,68 76,92 48,92" fill="#9C1414" stroke="#9C1414" stroke-width="0.5"/>
  <polygon points="16,16 38,6 52,10 28,20" fill="#F88058" stroke="#F88058" stroke-width="0.5"/>
  <polygon points="28,20 52,10 56,14 42,22" fill="#F06840" stroke="#F06840" stroke-width="0.5"/>
  <polygon points="48,20 64,12 78,16 62,24" fill="#EC4838" stroke="#EC4838" stroke-width="0.5"/>
  <polygon points="24,10 34,0 38,6 30,14" fill="#FCA080" stroke="#FCA080" stroke-width="0.5"/>
  <polygon points="56,14 62,8 64,12 58,18" fill="#F06848" stroke="#F06848" stroke-width="0.5"/>
  <polygon points="70,18 74,14 76,18 72,22" fill="#DC3828" stroke="#DC3828" stroke-width="0.5"/>
  <polygon points="76,24 76,38 88,34 88,26" fill="#8C1420" stroke="#8C1420" stroke-width="0.5"/>
  <polygon points="76,38 76,52 88,48 88,34" fill="#741220" stroke="#741220" stroke-width="0.5"/>
  <polygon points="76,52 76,72 88,68 88,48" fill="#5C0E1C" stroke="#5C0E1C" stroke-width="0.5"/>
  <polygon points="76,72 76,92 88,88 88,68" fill="#440C18" stroke="#440C18" stroke-width="0.5"/>
  <polygon points="64,12 78,16 88,26 76,24" fill="#9C1820" stroke="#9C1820" stroke-width="0.5"/>
  <polygon points="10,44 46,40 46,46 10,50" fill="#EC4838" stroke="#EC4838" stroke-width="0.5"/>
  <polygon points="10,50 46,46 46,58 10,62" fill="#140408" stroke="#140408" stroke-width="0.5"/>
  <polygon points="24,50 24,58 46,56 46,48" fill="#240810" stroke="#240810" stroke-width="0.5"/>
  <polygon points="30,58 32,58 33,68 31,68" fill="#1C0608" opacity="0.4"/>
  <polygon points="6,92 24,92 24,68 18,66" fill="#841420" stroke="#841420" stroke-width="0.5"/>
  <polygon points="24,92 32,92 32,78 28,76" fill="#741220" stroke="#741220" stroke-width="0.5"/>
  <polygon points="18,28 72,24 72,28 18,32" fill="#D83020" opacity="0.2"/>
  <polygon points="14,48 74,44 74,47 14,51" fill="#B81C1C" opacity="0.15"/>
  <polygon points="12,64 74,60 74,63 12,67" fill="#841420" opacity="0.18"/>
  <polygon points="10,80 76,76 76,79 10,83" fill="#4C0C1C" opacity="0.15"/>
  <polygon points="46,20 48,20 48,92 46,92" fill="#2C0A12"/>
  <polygon points="62,24 63,24 63,92 62,92" fill="#440C18" opacity="0.5"/>
  <polygon points="36,32 38,30 48,50 46,50" fill="#2C0A12" opacity="0.3"/>
  <polygon points="68,30 69,30 69,92 68,92" fill="#3C0C14" opacity="0.3"/>
  <line x1="20" y1="36" x2="36" y2="72" stroke="#E85040" stroke-width="0.7" opacity="0.2"/>
  <line x1="52" y1="32" x2="62" y2="68" stroke="#CC3828" stroke-width="0.5" opacity="0.15"/>
  <line x1="16" y1="16" x2="24" y2="10" stroke="#FFB888" stroke-width="1.4" opacity="0.65"/>
  <line x1="24" y1="10" x2="34" y2="0" stroke="#FFCC99" stroke-width="1.2" opacity="0.55"/>
  <line x1="34" y1="0" x2="38" y2="6" stroke="#FFB878" stroke-width="1" opacity="0.45"/>
  <line x1="38" y1="6" x2="52" y2="10" stroke="#FFA868" stroke-width="0.8" opacity="0.35"/>
  <line x1="56" y1="14" x2="62" y2="8" stroke="#F09068" stroke-width="0.7" opacity="0.3"/>
  <polygon points="2,92 100,88 100,98 2,98" fill="#140408" opacity="0.85"/>
  <polygon points="12,94 18,88 24,90 22,94" fill="#7C1420" stroke="#7C1420" stroke-width="0.5"/>
  <polygon points="18,88 24,90 22,86" fill="#9C1820" stroke="#9C1820" stroke-width="0.5"/>
  <polygon points="30,96 36,90 42,96" fill="#681020" stroke="#681020" stroke-width="0.5"/>
  <polygon points="36,90 40,88 42,96" fill="#4C0C1C" stroke="#4C0C1C" stroke-width="0.5"/>
  <polygon points="80,92 86,87 92,92" fill="#440C18" stroke="#440C18" stroke-width="0.5"/>
  <polygon points="86,87 90,86 92,92" fill="#300C14" stroke="#300C14" stroke-width="0.5"/>
  <polygon points="48,96 52,92 55,96" fill="#581020" stroke="#581020" stroke-width="0.5"/>
  <polygon points="66,94 70,90 73,94" fill="#4C0C1C" stroke="#4C0C1C" stroke-width="0.5"/>
  <polygon points="58,97 60,94 62,97" fill="#581020" stroke="#581020" stroke-width="0.5"/>
  <polygon points="96,94 98,91 100,94" fill="#300C14" stroke="#300C14" stroke-width="0.5"/>
</svg>
