<svg viewBox="0 0 440 110" xmlns="http://www.w3.org/2000/svg" shape-rendering="geometricPrecision">

      <!-- ===== ATMOSPHERIC HAZE / SKY GLOW ===== -->
      <defs>
        <radialGradient id="glow" cx="50" cy="40" r="80" gradientUnits="userSpaceOnUse">
          <stop offset="0%" stop-color="#E84030" stop-opacity="0.06"/>
          <stop offset="100%" stop-color="#E84030" stop-opacity="0"/>
        </radialGradient>
      </defs>
      <rect x="0" y="0" width="100" height="100" fill="url(#glow)"/>

      <!-- ===== ROCK FORMATION — 40+ faces ===== -->

      <!-- DEPTH 4 — distant pinnacle -->
      <polygon points="82,82 84,56 88,50 92,54 94,82" fill="#180408" stroke="#180408" stroke-width="0.5"/>

      <!-- DEPTH 3 — far spire -->
      <polygon points="72,82 76,42 84,34 90,40 92,82" fill="#200610" stroke="#200610" stroke-width="0.5"/>
      <polygon points="76,42 84,34 90,38 82,44" fill="#380C16" stroke="#380C16" stroke-width="0.5"/>

      <!-- DEPTH 2 — mid background mesa -->
      <polygon points="58,82 64,28 80,20 94,30 96,82" fill="#2C0A12" stroke="#2C0A12" stroke-width="0.5"/>
      <polygon points="64,28 80,20 96,24 78,32" fill="#4C1018" stroke="#4C1018" stroke-width="0.5"/>
      <!-- Mid mesa right face -->
      <polygon points="94,30 96,82 100,78 100,34" fill="#1C0608" stroke="#1C0608" stroke-width="0.5"/>

      <!-- ===== MAIN FORMATION ===== -->

      <!-- LEFT FACE — upper (full sun, brightest) -->
      <polygon points="6,92 16,16 38,6 48,20 48,46" fill="#DC2828" stroke="#DC2828" stroke-width="0.5"/>
      <!-- LEFT FACE — mid -->
      <polygon points="6,92 48,46 48,68 14,78" fill="#D02424" stroke="#D02424" stroke-width="0.5"/>
      <!-- LEFT FACE — lower (slight shadow) -->
      <polygon points="14,78 48,68 48,92 6,92" fill="#C42020" stroke="#C42020" stroke-width="0.5"/>

      <!-- RIGHT FACE — upper -->
      <polygon points="48,20 64,12 76,24 76,46 48,46" fill="#B81C1C" stroke="#B81C1C" stroke-width="0.5"/>
      <!-- RIGHT FACE — mid -->
      <polygon points="48,46 76,46 76,68 48,68" fill="#A81818" stroke="#A81818" stroke-width="0.5"/>
      <!-- RIGHT FACE — lower -->
      <polygon points="48,68 76,68 76,92 48,92" fill="#9C1414" stroke="#9C1414" stroke-width="0.5"/>

      <!-- TOP PLATEAU — left (warmest sunrise) -->
      <polygon points="16,16 38,6 52,10 28,20" fill="#F88058" stroke="#F88058" stroke-width="0.5"/>
      <!-- TOP PLATEAU — center -->
      <polygon points="28,20 52,10 56,14 42,22" fill="#F06840" stroke="#F06840" stroke-width="0.5"/>
      <!-- TOP PLATEAU — right -->
      <polygon points="48,20 64,12 78,16 62,24" fill="#EC4838" stroke="#EC4838" stroke-width="0.5"/>

      <!-- PEAK — main high point -->
      <polygon points="24,10 34,0 38,6 30,14" fill="#FCA080" stroke="#FCA080" stroke-width="0.5"/>
      <!-- PEAK — secondary bump -->
      <polygon points="56,14 62,8 64,12 58,18" fill="#F06848" stroke="#F06848" stroke-width="0.5"/>
      <!-- PEAK — tiny spur far right -->
      <polygon points="70,18 74,14 76,18 72,22" fill="#DC3828" stroke="#DC3828" stroke-width="0.5"/>

      <!-- RIGHT SIDE — 4-zone gradient -->
      <polygon points="76,24 76,38 88,34 88,26" fill="#8C1420" stroke="#8C1420" stroke-width="0.5"/>
      <polygon points="76,38 76,52 88,48 88,34" fill="#741220" stroke="#741220" stroke-width="0.5"/>
      <polygon points="76,52 76,72 88,68 88,48" fill="#5C0E1C" stroke="#5C0E1C" stroke-width="0.5"/>
      <polygon points="76,72 76,92 88,88 88,68" fill="#440C18" stroke="#440C18" stroke-width="0.5"/>
      <!-- Side top facet -->
      <polygon points="64,12 78,16 88,26 76,24" fill="#9C1820" stroke="#9C1820" stroke-width="0.5"/>

      <!-- OVERHANG SHELF — lit surface -->
      <polygon points="10,44 46,40 46,46 10,50" fill="#EC4838" stroke="#EC4838" stroke-width="0.5"/>
      <!-- OVERHANG — underside (darkest cave shadow) -->
      <polygon points="10,50 46,46 46,58 10,62" fill="#140408" stroke="#140408" stroke-width="0.5"/>
      <!-- Cave back wall -->
      <polygon points="24,50 24,58 46,56 46,48" fill="#240810" stroke="#240810" stroke-width="0.5"/>
      <!-- Drip stain beneath overhang -->
      <polygon points="30,58 32,58 33,68 31,68" fill="#1C0608" opacity="0.4"/>

      <!-- EROSION LEDGE — stepped lower left -->
      <polygon points="6,92 24,92 24,68 18,66" fill="#841420" stroke="#841420" stroke-width="0.5"/>
      <!-- Second smaller ledge step -->
      <polygon points="24,92 32,92 32,78 28,76" fill="#741220" stroke="#741220" stroke-width="0.5"/>

      <!-- STRATA BANDS — 4 layers -->
      <polygon points="18,28 72,24 72,28 18,32" fill="#D83020" opacity="0.2"/>
      <polygon points="14,48 74,44 74,47 14,51" fill="#B81C1C" opacity="0.15"/>
      <polygon points="12,64 74,60 74,63 12,67" fill="#841420" opacity="0.18"/>
      <polygon points="10,80 76,76 76,79 10,83" fill="#4C0C1C" opacity="0.15"/>

      <!-- FRACTURE SYSTEM — 3 cracks -->
      <polygon points="46,20 48,20 48,92 46,92" fill="#2C0A12"/>
      <polygon points="62,24 63,24 63,92 62,92" fill="#440C18" opacity="0.5"/>
      <!-- Diagonal fracture spur -->
      <polygon points="36,32 38,30 48,50 46,50" fill="#2C0A12" opacity="0.3"/>
      <!-- Hairline crack right face -->
      <polygon points="68,30 69,30 69,92 68,92" fill="#3C0C14" opacity="0.3"/>

      <!-- MINERAL VEINS -->
      <line x1="20" y1="36" x2="36" y2="72" stroke="#E85040" stroke-width="0.7" opacity="0.2"/>
      <line x1="52" y1="32" x2="62" y2="68" stroke="#CC3828" stroke-width="0.5" opacity="0.15"/>
      <line x1="28" y1="70" x2="42" y2="86" stroke="#D44030" stroke-width="0.4" opacity="0.12"/>

      <!-- RIM LIGHTING — sunrise edge glow -->
      <line x1="16" y1="16" x2="24" y2="10" stroke="#FFB888" stroke-width="1.4" opacity="0.65"/>
      <line x1="24" y1="10" x2="34" y2="0" stroke="#FFCC99" stroke-width="1.2" opacity="0.55"/>
      <line x1="34" y1="0" x2="38" y2="6" stroke="#FFB878" stroke-width="1" opacity="0.45"/>
      <line x1="38" y1="6" x2="52" y2="10" stroke="#FFA868" stroke-width="0.8" opacity="0.35"/>
      <line x1="56" y1="14" x2="62" y2="8" stroke="#F09068" stroke-width="0.7" opacity="0.3"/>

      <!-- TALUS / SCREE FIELD -->
      <polygon points="2,92 100,88 100,98 2,98" fill="#140408" opacity="0.85"/>
      <!-- Large boulder -->
      <polygon points="12,94 18,88 24,90 22,94" fill="#7C1420" stroke="#7C1420" stroke-width="0.5"/>
      <polygon points="18,88 24,90 22,86" fill="#9C1820" stroke="#9C1820" stroke-width="0.5"/>
      <!-- Medium rocks -->
      <polygon points="30,96 36,90 42,96" fill="#681020" stroke="#681020" stroke-width="0.5"/>
      <polygon points="36,90 40,88 42,96" fill="#4C0C1C" stroke="#4C0C1C" stroke-width="0.5"/>
      <polygon points="80,92 86,87 92,92" fill="#440C18" stroke="#440C18" stroke-width="0.5"/>
      <polygon points="86,87 90,86 92,92" fill="#300C14" stroke="#300C14" stroke-width="0.5"/>
      <!-- Small debris -->
      <polygon points="48,96 52,92 55,96" fill="#581020" stroke="#581020" stroke-width="0.5"/>
      <polygon points="66,94 70,90 73,94" fill="#4C0C1C" stroke="#4C0C1C" stroke-width="0.5"/>
      <polygon points="58,97 60,94 62,97" fill="#581020" stroke="#581020" stroke-width="0.5"/>
      <polygon points="96,94 98,91 100,94" fill="#300C14" stroke="#300C14" stroke-width="0.5"/>


      <!-- ===== TYPOGRAPHY — outlined paths with deep extrusion ===== -->

      <!-- "Red" deep extrusion (2.5px offset) -->
      <g transform="translate(116.5,22.5)" opacity="0.35">
        <path fill="#3C0C14" d="M15.91 74.74L4.75 74.74L4.75 21.10L25.27 21.10Q30.82 21.10 35.10 23.04Q39.38 24.98 41.83 28.80Q44.28 32.62 44.28 38.23L44.28 38.23Q44.28 43.70 41.76 47.56Q39.24 51.41 34.99 53.35L34.99 53.35L47.23 74.74L34.70 74.74L21.46 51.05L28.66 55.30L15.91 55.30L15.91 74.74ZM15.91 30.82L15.91 45.58L25.34 45.58Q27.72 45.58 29.45 44.64Q31.18 43.70 32.15 42.05Q33.12 40.39 33.12 38.23L33.12 38.23Q33.12 36 32.15 34.34Q31.18 32.69 29.45 31.75Q27.72 30.82 25.34 30.82L25.34 30.82L15.91 30.82Z" transform="scale(0.62)"/>
      </g>
      <!-- "Red" mid extrusion -->
      <g transform="translate(115,21)" opacity="0.2">
        <path fill="#681020" d="M15.91 74.74L4.75 74.74L4.75 21.10L25.27 21.10Q30.82 21.10 35.10 23.04Q39.38 24.98 41.83 28.80Q44.28 32.62 44.28 38.23L44.28 38.23Q44.28 43.70 41.76 47.56Q39.24 51.41 34.99 53.35L34.99 53.35L47.23 74.74L34.70 74.74L21.46 51.05L28.66 55.30L15.91 55.30L15.91 74.74ZM15.91 30.82L15.91 45.58L25.34 45.58Q27.72 45.58 29.45 44.64Q31.18 43.70 32.15 42.05Q33.12 40.39 33.12 38.23L33.12 38.23Q33.12 36 32.15 34.34Q31.18 32.69 29.45 31.75Q27.72 30.82 25.34 30.82L25.34 30.82L15.91 30.82Z" transform="scale(0.62)"/>
      </g>
      <!-- "Red" main -->
      <g transform="translate(114,20)">
        <path fill="#E84030" d="M15.91 74.74L4.75 74.74L4.75 21.10L25.27 21.10Q30.82 21.10 35.10 23.04Q39.38 24.98 41.83 28.80Q44.28 32.62 44.28 38.23L44.28 38.23Q44.28 43.70 41.76 47.56Q39.24 51.41 34.99 53.35L34.99 53.35L47.23 74.74L34.70 74.74L21.46 51.05L28.66 55.30L15.91 55.30L15.91 74.74ZM15.91 30.82L15.91 45.58L25.34 45.58Q27.72 45.58 29.45 44.64Q31.18 43.70 32.15 42.05Q33.12 40.39 33.12 38.23L33.12 38.23Q33.12 36 32.15 34.34Q31.18 32.69 29.45 31.75Q27.72 30.82 25.34 30.82L25.34 30.82L15.91 30.82ZM67.32 75.60L67.32 75.60Q61.06 75.60 56.45 72.83Q51.84 70.06 49.32 65.38Q46.80 60.70 46.80 55.01L46.80 55.01Q46.80 49.10 49.43 44.50Q52.06 39.89 56.52 37.22Q60.98 34.56 66.60 34.56L66.60 34.56Q71.28 34.56 74.88 36.04Q78.48 37.51 80.96 40.18Q83.45 42.84 84.74 46.33Q86.04 49.82 86.04 53.93L86.04 53.93Q86.04 55.08 85.93 56.20Q85.82 57.31 85.54 58.10L85.54 58.10L56.09 58.10L56.09 50.18L79.42 50.18L74.30 53.93Q75.02 50.83 74.23 48.42Q73.44 46.01 71.46 44.60Q69.48 43.20 66.60 43.20L66.60 43.20Q63.79 43.20 61.78 44.57Q59.76 45.94 58.75 48.60Q57.74 51.26 57.96 55.08L57.96 55.08Q57.67 58.39 58.75 60.91Q59.83 63.43 62.06 64.84Q64.30 66.24 67.46 66.24L67.46 66.24Q70.34 66.24 72.40 65.09Q74.45 63.94 75.60 61.92L75.60 61.92L84.24 66.02Q83.09 68.90 80.60 71.06Q78.12 73.22 74.74 74.41Q71.35 75.60 67.32 75.60ZM109.44 75.60L109.44 75.60Q103.68 75.60 99.14 72.86Q94.61 70.13 91.98 65.45Q89.35 60.77 89.35 55.08L89.35 55.08Q89.35 49.32 92.02 44.68Q94.68 40.03 99.22 37.30Q103.75 34.56 109.37 34.56L109.37 34.56Q113.69 34.56 117.04 36.18Q120.38 37.80 122.33 40.75L122.33 40.75L120.67 42.91L120.67 20.23L131.47 20.23L131.47 74.74L121.39 74.74L121.39 67.54L122.40 69.77Q120.38 72.65 116.93 74.12Q113.47 75.60 109.44 75.60ZM110.74 65.88L110.74 65.88Q113.69 65.88 115.92 64.51Q118.15 63.14 119.41 60.70Q120.67 58.25 120.67 55.08L120.67 55.08Q120.67 51.91 119.41 49.46Q118.15 47.02 115.92 45.65Q113.69 44.28 110.74 44.28L110.74 44.28Q107.78 44.28 105.44 45.68Q103.10 47.09 101.81 49.50Q100.51 51.91 100.51 55.08L100.51 55.08Q100.51 58.25 101.81 60.70Q103.10 63.14 105.44 64.51Q107.78 65.88 110.74 65.88Z" transform="scale(0.62)"/>
      </g>
      <!-- "Red" highlight shimmer on the R -->
      <g transform="translate(114,20)" opacity="0.15">
        <path fill="#FFC0A0" d="M15.91 74.74L4.75 74.74L4.75 21.10L25.27 21.10Q30.82 21.10 35.10 23.04Q39.38 24.98 41.83 28.80Q44.28 32.62 44.28 38.23L44.28 38.23Q44.28 43.70 41.76 47.56Q39.24 51.41 34.99 53.35L34.99 53.35L47.23 74.74L34.70 74.74L21.46 51.05L28.66 55.30L15.91 55.30L15.91 74.74ZM15.91 30.82L15.91 45.58L25.34 45.58Q27.72 45.58 29.45 44.64Q31.18 43.70 32.15 42.05Q33.12 40.39 33.12 38.23L33.12 38.23Q33.12 36 32.15 34.34Q31.18 32.69 29.45 31.75Q27.72 30.82 25.34 30.82L25.34 30.82L15.91 30.82Z" transform="scale(0.62)" clip-path="inset(0 50% 50% 0)"/>
      </g>

      <!-- "Rock" deep extrusion -->
      <g transform="translate(200.5,22.5)" opacity="0.3">
        <path fill="#08080C" d="M15.91 74.74L4.75 74.74L4.75 21.10L25.27 21.10Q30.82 21.10 35.10 23.04Q39.38 24.98 41.83 28.80Q44.28 32.62 44.28 38.23L44.28 38.23Q44.28 43.70 41.76 47.56Q39.24 51.41 34.99 53.35L34.99 53.35L47.23 74.74L34.70 74.74L21.46 51.05L28.66 55.30L15.91 55.30L15.91 74.74ZM15.91 30.82L15.91 45.58L25.34 45.58Q27.72 45.58 29.45 44.64Q31.18 43.70 32.15 42.05Q33.12 40.39 33.12 38.23L33.12 38.23Q33.12 36 32.15 34.34Q31.18 32.69 29.45 31.75Q27.72 30.82 25.34 30.82L25.34 30.82L15.91 30.82ZM67.90 75.60L67.90 75.60Q62.06 75.60 57.28 72.94Q52.49 70.27 49.64 65.63Q46.80 60.98 46.80 55.08L46.80 55.08Q46.80 49.10 49.64 44.50Q52.49 39.89 57.28 37.22Q62.06 34.56 67.90 34.56L67.90 34.56Q73.73 34.56 78.48 37.22Q83.23 39.89 86.08 44.50Q88.92 49.10 88.92 55.08L88.92 55.08Q88.92 60.98 86.08 65.63Q83.23 70.27 78.48 72.94Q73.73 75.60 67.90 75.60ZM67.90 65.88L67.90 65.88Q70.85 65.88 73.04 64.51Q75.24 63.14 76.50 60.70Q77.76 58.25 77.76 55.08L77.76 55.08Q77.76 51.91 76.50 49.50Q75.24 47.09 73.04 45.68Q70.85 44.28 67.90 44.28L67.90 44.28Q64.94 44.28 62.71 45.68Q60.48 47.09 59.22 49.50Q57.96 51.91 57.96 55.08L57.96 55.08Q57.96 58.25 59.22 60.70Q60.48 63.14 62.71 64.51Q64.94 65.88 67.90 65.88ZM113.11 75.60L113.11 75.60Q107.21 75.60 102.49 72.90Q97.78 70.20 95.00 65.52Q92.23 60.84 92.23 55.01L92.23 55.01Q92.23 49.18 94.97 44.53Q97.70 39.89 102.46 37.22Q107.21 34.56 113.11 34.56L113.11 34.56Q117.50 34.56 121.25 36.07Q124.99 37.58 127.66 40.28Q130.32 42.98 131.47 46.66L131.47 46.66L122.11 50.69Q121.10 47.74 118.69 46.01Q116.28 44.28 113.11 44.28L113.11 44.28Q110.30 44.28 108.11 45.65Q105.91 47.02 104.65 49.46Q103.39 51.91 103.39 55.08L103.39 55.08Q103.39 58.25 104.65 60.70Q105.91 63.14 108.11 64.51Q110.30 65.88 113.11 65.88L113.11 65.88Q116.35 65.88 118.73 64.15Q121.10 62.42 122.11 59.47L122.11 59.47L131.47 63.58Q130.39 67.03 127.73 69.77Q125.06 72.50 121.32 74.05Q117.58 75.60 113.11 75.60ZM147.17 74.74L136.37 74.74L136.37 20.23L147.17 20.23L147.17 55.15L143.14 53.86L160.49 35.42L173.81 35.42L159.55 51.26L173.74 74.74L161.50 74.74L149.62 54.79L155.88 53.21L143.86 66.31L147.17 60.05L147.17 74.74Z" transform="scale(0.62)"/>
      </g>
      <!-- "Rock" mid extrusion -->
      <g transform="translate(199.5,21.5)" opacity="0.18">
        <path fill="#0C0C14" d="M15.91 74.74L4.75 74.74L4.75 21.10L25.27 21.10Q30.82 21.10 35.10 23.04Q39.38 24.98 41.83 28.80Q44.28 32.62 44.28 38.23L44.28 38.23Q44.28 43.70 41.76 47.56Q39.24 51.41 34.99 53.35L34.99 53.35L47.23 74.74L34.70 74.74L21.46 51.05L28.66 55.30L15.91 55.30L15.91 74.74ZM15.91 30.82L15.91 45.58L25.34 45.58Q27.72 45.58 29.45 44.64Q31.18 43.70 32.15 42.05Q33.12 40.39 33.12 38.23L33.12 38.23Q33.12 36 32.15 34.34Q31.18 32.69 29.45 31.75Q27.72 30.82 25.34 30.82L25.34 30.82L15.91 30.82Z" transform="scale(0.62)"/>
      </g>
      <!-- "Rock" main -->
      <g transform="translate(199,20)">
        <path fill="#F0F0F5" d="M15.91 74.74L4.75 74.74L4.75 21.10L25.27 21.10Q30.82 21.10 35.10 23.04Q39.38 24.98 41.83 28.80Q44.28 32.62 44.28 38.23L44.28 38.23Q44.28 43.70 41.76 47.56Q39.24 51.41 34.99 53.35L34.99 53.35L47.23 74.74L34.70 74.74L21.46 51.05L28.66 55.30L15.91 55.30L15.91 74.74ZM15.91 30.82L15.91 45.58L25.34 45.58Q27.72 45.58 29.45 44.64Q31.18 43.70 32.15 42.05Q33.12 40.39 33.12 38.23L33.12 38.23Q33.12 36 32.15 34.34Q31.18 32.69 29.45 31.75Q27.72 30.82 25.34 30.82L25.34 30.82L15.91 30.82ZM67.90 75.60L67.90 75.60Q62.06 75.60 57.28 72.94Q52.49 70.27 49.64 65.63Q46.80 60.98 46.80 55.08L46.80 55.08Q46.80 49.10 49.64 44.50Q52.49 39.89 57.28 37.22Q62.06 34.56 67.90 34.56L67.90 34.56Q73.73 34.56 78.48 37.22Q83.23 39.89 86.08 44.50Q88.92 49.10 88.92 55.08L88.92 55.08Q88.92 60.98 86.08 65.63Q83.23 70.27 78.48 72.94Q73.73 75.60 67.90 75.60ZM67.90 65.88L67.90 65.88Q70.85 65.88 73.04 64.51Q75.24 63.14 76.50 60.70Q77.76 58.25 77.76 55.08L77.76 55.08Q77.76 51.91 76.50 49.50Q75.24 47.09 73.04 45.68Q70.85 44.28 67.90 44.28L67.90 44.28Q64.94 44.28 62.71 45.68Q60.48 47.09 59.22 49.50Q57.96 51.91 57.96 55.08L57.96 55.08Q57.96 58.25 59.22 60.70Q60.48 63.14 62.71 64.51Q64.94 65.88 67.90 65.88ZM113.11 75.60L113.11 75.60Q107.21 75.60 102.49 72.90Q97.78 70.20 95.00 65.52Q92.23 60.84 92.23 55.01L92.23 55.01Q92.23 49.18 94.97 44.53Q97.70 39.89 102.46 37.22Q107.21 34.56 113.11 34.56L113.11 34.56Q117.50 34.56 121.25 36.07Q124.99 37.58 127.66 40.28Q130.32 42.98 131.47 46.66L131.47 46.66L122.11 50.69Q121.10 47.74 118.69 46.01Q116.28 44.28 113.11 44.28L113.11 44.28Q110.30 44.28 108.11 45.65Q105.91 47.02 104.65 49.46Q103.39 51.91 103.39 55.08L103.39 55.08Q103.39 58.25 104.65 60.70Q105.91 63.14 108.11 64.51Q110.30 65.88 113.11 65.88L113.11 65.88Q116.35 65.88 118.73 64.15Q121.10 62.42 122.11 59.47L122.11 59.47L131.47 63.58Q130.39 67.03 127.73 69.77Q125.06 72.50 121.32 74.05Q117.58 75.60 113.11 75.60ZM147.17 74.74L136.37 74.74L136.37 20.23L147.17 20.23L147.17 55.15L143.14 53.86L160.49 35.42L173.81 35.42L159.55 51.26L173.74 74.74L161.50 74.74L149.62 54.79L155.88 53.21L143.86 66.31L147.17 60.05L147.17 74.74Z" transform="scale(0.62)"/>
      </g>

      <!-- "SYSTEMS" extrusion -->
      <g transform="translate(117.5,71)" opacity="0.2">
        <path fill="#3C0C14" d="M6.07 18.90L6.07 18.90Q4.81 18.90 3.70 18.44Q2.59 17.98 1.79 17.14Q0.99 16.29 0.59 15.14L0.59 15.14L2.88 14.11Q3.38 15.21 4.28 15.84Q5.17 16.47 6.25 16.47L6.25 16.47Q6.82 16.47 7.24 16.29Q7.65 16.11 7.88 15.80Q8.12 15.48 8.12 15.05L8.12 15.05Q8.12 14.58 7.83 14.25Q7.54 13.91 6.93 13.72L6.93 13.72L4.30 12.85Q2.70 12.33 1.89 11.37Q1.08 10.40 1.08 9.05L1.08 9.05Q1.08 7.87 1.67 6.97Q2.25 6.07 3.30 5.56Q4.36 5.06 5.72 5.06L5.72 5.06Q6.93 5.06 7.96 5.47Q8.98 5.89 9.73 6.64Q10.48 7.40 10.85 8.46L10.85 8.46L8.59 9.49Q8.21 8.55 7.45 8.02Q6.70 7.49 5.72 7.49L5.72 7.49Q5.17 7.49 4.73 7.67Q4.30 7.85 4.07 8.18Q3.83 8.51 3.83 8.95L3.83 8.95Q3.83 9.41 4.14 9.77Q4.45 10.12 5.06 10.31L5.06 10.31L7.63 11.14Q9.25 11.66 10.05 12.60Q10.85 13.54 10.85 14.89L10.85 14.89Q10.85 16.06 10.24 16.96Q9.63 17.87 8.56 18.39Q7.49 18.90 6.07 18.90ZM23.24 18.68L20.45 18.68L20.45 12.83L15.98 5.27L19.17 5.27L22.41 10.96L21.28 10.96L24.50 5.27L27.68 5.27L23.24 12.82L23.24 18.68ZM37.91 18.90L37.91 18.90Q36.65 18.90 35.54 18.44Q34.43 17.98 33.63 17.14Q32.83 16.29 32.44 15.14L32.44 15.14L34.72 14.11Q35.23 15.21 36.12 15.84Q37.01 16.47 38.09 16.47L38.09 16.47Q38.66 16.47 39.08 16.29Q39.49 16.11 39.73 15.80Q39.96 15.48 39.96 15.05L39.96 15.05Q39.96 14.58 39.67 14.25Q39.38 13.91 38.77 13.72L38.77 13.72L36.14 12.85Q34.54 12.33 33.73 11.37Q32.92 10.40 32.92 9.05L32.92 9.05Q32.92 7.87 33.51 6.97Q34.09 6.07 35.15 5.56Q36.20 5.06 37.57 5.06L37.57 5.06Q38.77 5.06 39.80 5.47Q40.82 5.89 41.57 6.64Q42.32 7.40 42.70 8.46L42.70 8.46L40.43 9.49Q40.05 8.55 39.29 8.02Q38.54 7.49 37.57 7.49L37.57 7.49Q37.01 7.49 36.58 7.67Q36.14 7.85 35.91 8.18Q35.68 8.51 35.68 8.95L35.68 8.95Q35.68 9.41 35.98 9.77Q36.29 10.12 36.90 10.31L36.90 10.31L39.47 11.14Q41.09 11.66 41.90 12.60Q42.70 13.54 42.70 14.89L42.70 14.89Q42.70 16.06 42.08 16.96Q41.47 17.87 40.40 18.39Q39.33 18.90 37.91 18.90ZM54.38 18.68L51.59 18.68L51.59 7.70L48.19 7.70L48.19 5.27L57.73 5.27L57.73 7.70L54.38 7.70L54.38 18.68ZM72.63 18.68L63.61 18.68L63.61 5.27L72.63 5.27L72.63 7.70L66.40 7.70L66.40 10.75L72.27 10.75L72.27 13.18L66.40 13.18L66.40 16.25L72.63 16.25L72.63 18.68ZM81.50 18.68L78.71 18.68L78.71 5.27L81.41 5.27L86.44 11.93L85.18 11.93L90.05 5.27L92.75 5.27L92.75 18.68L89.96 18.68L89.96 8.35L91.08 8.60L85.91 15.26L85.55 15.26L80.57 8.60L81.50 8.35L81.50 18.68ZM104.51 18.90L104.51 18.90Q103.25 18.90 102.14 18.44Q101.03 17.98 100.23 17.14Q99.43 16.29 99.04 15.14L99.04 15.14L101.32 14.11Q101.83 15.21 102.72 15.84Q103.61 16.47 104.69 16.47L104.69 16.47Q105.26 16.47 105.68 16.29Q106.09 16.11 106.33 15.80Q106.56 15.48 106.56 15.05L106.56 15.05Q106.56 14.58 106.27 14.25Q105.98 13.91 105.37 13.72L105.37 13.72L102.74 12.85Q101.14 12.33 100.33 11.37Q99.52 10.40 99.52 9.05L99.52 9.05Q99.52 7.87 100.11 6.97Q100.69 6.07 101.75 5.56Q102.80 5.06 104.17 5.06L104.17 5.06Q105.37 5.06 106.40 5.47Q107.42 5.89 108.17 6.64Q108.92 7.40 109.30 8.46L109.30 8.46L107.03 9.49Q106.65 8.55 105.89 8.02Q105.14 7.49 104.17 7.49L104.17 7.49Q103.61 7.49 103.18 7.67Q102.74 7.85 102.51 8.18Q102.28 8.51 102.28 8.95L102.28 8.95Q102.28 9.41 102.58 9.77Q102.89 10.12 103.50 10.31L103.50 10.31L106.07 11.14Q107.69 11.66 108.50 12.60Q109.30 13.54 109.30 14.89L109.30 14.89Q109.30 16.06 108.68 16.96Q108.07 17.87 107.00 18.39Q105.93 18.90 104.51 18.90Z" transform="scale(0.88)"/>
      </g>
      <!-- "SYSTEMS" main -->
      <g transform="translate(116,70)">
        <path fill="#484858" d="M6.07 18.90L6.07 18.90Q4.81 18.90 3.70 18.44Q2.59 17.98 1.79 17.14Q0.99 16.29 0.59 15.14L0.59 15.14L2.88 14.11Q3.38 15.21 4.28 15.84Q5.17 16.47 6.25 16.47L6.25 16.47Q6.82 16.47 7.24 16.29Q7.65 16.11 7.88 15.80Q8.12 15.48 8.12 15.05L8.12 15.05Q8.12 14.58 7.83 14.25Q7.54 13.91 6.93 13.72L6.93 13.72L4.30 12.85Q2.70 12.33 1.89 11.37Q1.08 10.40 1.08 9.05L1.08 9.05Q1.08 7.87 1.67 6.97Q2.25 6.07 3.30 5.56Q4.36 5.06 5.72 5.06L5.72 5.06Q6.93 5.06 7.96 5.47Q8.98 5.89 9.73 6.64Q10.48 7.40 10.85 8.46L10.85 8.46L8.59 9.49Q8.21 8.55 7.45 8.02Q6.70 7.49 5.72 7.49L5.72 7.49Q5.17 7.49 4.73 7.67Q4.30 7.85 4.07 8.18Q3.83 8.51 3.83 8.95L3.83 8.95Q3.83 9.41 4.14 9.77Q4.45 10.12 5.06 10.31L5.06 10.31L7.63 11.14Q9.25 11.66 10.05 12.60Q10.85 13.54 10.85 14.89L10.85 14.89Q10.85 16.06 10.24 16.96Q9.63 17.87 8.56 18.39Q7.49 18.90 6.07 18.90ZM23.24 18.68L20.45 18.68L20.45 12.83L15.98 5.27L19.17 5.27L22.41 10.96L21.28 10.96L24.50 5.27L27.68 5.27L23.24 12.82L23.24 18.68ZM37.91 18.90L37.91 18.90Q36.65 18.90 35.54 18.44Q34.43 17.98 33.63 17.14Q32.83 16.29 32.44 15.14L32.44 15.14L34.72 14.11Q35.23 15.21 36.12 15.84Q37.01 16.47 38.09 16.47L38.09 16.47Q38.66 16.47 39.08 16.29Q39.49 16.11 39.73 15.80Q39.96 15.48 39.96 15.05L39.96 15.05Q39.96 14.58 39.67 14.25Q39.38 13.91 38.77 13.72L38.77 13.72L36.14 12.85Q34.54 12.33 33.73 11.37Q32.92 10.40 32.92 9.05L32.92 9.05Q32.92 7.87 33.51 6.97Q34.09 6.07 35.15 5.56Q36.20 5.06 37.57 5.06L37.57 5.06Q38.77 5.06 39.80 5.47Q40.82 5.89 41.57 6.64Q42.32 7.40 42.70 8.46L42.70 8.46L40.43 9.49Q40.05 8.55 39.29 8.02Q38.54 7.49 37.57 7.49L37.57 7.49Q37.01 7.49 36.58 7.67Q36.14 7.85 35.91 8.18Q35.68 8.51 35.68 8.95L35.68 8.95Q35.68 9.41 35.98 9.77Q36.29 10.12 36.90 10.31L36.90 10.31L39.47 11.14Q41.09 11.66 41.90 12.60Q42.70 13.54 42.70 14.89L42.70 14.89Q42.70 16.06 42.08 16.96Q41.47 17.87 40.40 18.39Q39.33 18.90 37.91 18.90ZM54.38 18.68L51.59 18.68L51.59 7.70L48.19 7.70L48.19 5.27L57.73 5.27L57.73 7.70L54.38 7.70L54.38 18.68ZM72.63 18.68L63.61 18.68L63.61 5.27L72.63 5.27L72.63 7.70L66.40 7.70L66.40 10.75L72.27 10.75L72.27 13.18L66.40 13.18L66.40 16.25L72.63 16.25L72.63 18.68ZM81.50 18.68L78.71 18.68L78.71 5.27L81.41 5.27L86.44 11.93L85.18 11.93L90.05 5.27L92.75 5.27L92.75 18.68L89.96 18.68L89.96 8.35L91.08 8.60L85.91 15.26L85.55 15.26L80.57 8.60L81.50 8.35L81.50 18.68ZM104.51 18.90L104.51 18.90Q103.25 18.90 102.14 18.44Q101.03 17.98 100.23 17.14Q99.43 16.29 99.04 15.14L99.04 15.14L101.32 14.11Q101.83 15.21 102.72 15.84Q103.61 16.47 104.69 16.47L104.69 16.47Q105.26 16.47 105.68 16.29Q106.09 16.11 106.33 15.80Q106.56 15.48 106.56 15.05L106.56 15.05Q106.56 14.58 106.27 14.25Q105.98 13.91 105.37 13.72L105.37 13.72L102.74 12.85Q101.14 12.33 100.33 11.37Q99.52 10.40 99.52 9.05L99.52 9.05Q99.52 7.87 100.11 6.97Q100.69 6.07 101.75 5.56Q102.80 5.06 104.17 5.06L104.17 5.06Q105.37 5.06 106.40 5.47Q107.42 5.89 108.17 6.64Q108.92 7.40 109.30 8.46L109.30 8.46L107.03 9.49Q106.65 8.55 105.89 8.02Q105.14 7.49 104.17 7.49L104.17 7.49Q103.61 7.49 103.18 7.67Q102.74 7.85 102.51 8.18Q102.28 8.51 102.28 8.95L102.28 8.95Q102.28 9.41 102.58 9.77Q102.89 10.12 103.50 10.31L103.50 10.31L106.07 11.14Q107.69 11.66 108.50 12.60Q109.30 13.54 109.30 14.89L109.30 14.89Q109.30 16.06 108.68 16.96Q108.07 17.87 107.00 18.39Q105.93 18.90 104.51 18.90Z" transform="scale(0.88)"/>
      </g>

      <!-- Red accent line with fade -->
      <defs>
        <linearGradient id="accent" x1="0" y1="0" x2="1" y2="0">
          <stop offset="0%" stop-color="#E84030" stop-opacity="0.4"/>
          <stop offset="100%" stop-color="#E84030" stop-opacity="0"/>
        </linearGradient>
      </defs>
      <line x1="116" y1="92" x2="220" y2="92" stroke="url(#accent)" stroke-width="2"/>

    </svg>
